<svg width="178" height="22" viewBox="0 0 178 22" fill="none" xmlns="http://www.w3.org/2000/svg">
<g clip-path="url(#clip0_4840_5575)">
<path d="M3.25737 3.99675H11.845V18.105H10.2798V5.47738H4.8226V13.0497C4.8226 13.7125 4.81555 14.2131 4.80145 14.5515C4.78735 14.8758 4.67454 15.3411 4.46302 15.9475C4.26561 16.5397 3.96243 17.0192 3.5535 17.3858C2.91894 17.9499 2.11518 18.2319 1.1422 18.2319C0.916577 18.2319 0.634553 18.1896 0.296125 18.105V16.6244C0.578148 16.709 0.83902 16.7513 1.07874 16.7513C1.62869 16.7513 2.08697 16.568 2.45361 16.2013C2.70743 15.9475 2.89779 15.5879 3.0247 15.1226C3.15161 14.6431 3.22212 14.2413 3.23622 13.9169C3.25032 13.5926 3.25737 13.092 3.25737 12.4152V3.99675ZM25.3078 18.105V7.33873L15.4933 18.7395V3.99675H17.0586V14.8053L26.873 3.4045V18.105H25.3078ZM30.5103 18.105V3.99675H32.0755V16.6244H39.2248V3.99675H40.79V16.6244H42.3976V21.0662H40.9169V18.105H30.5103ZM53.9487 18.105L52.2989 14.1284H46.2918L44.5997 18.105H42.8652L49.3588 3.31989L55.6832 18.105H53.9487ZM46.9052 12.6478H51.6855L49.3165 7.0003L46.9052 12.6478Z" fill="#111827"/>
<path d="M88.9409 3.99687V10.0462L94.9479 3.99687H97.0631L90.4638 10.575L97.2746 18.105H95.1172L89.3428 11.6326L88.9409 12.0345V18.105H87.3757V3.99687H88.9409ZM104.855 10.575V9.32707H106.378V18.105H104.855V16.8782C104.093 17.8653 103.092 18.3588 101.851 18.3588C100.667 18.3588 99.6584 17.9499 98.8265 17.132C97.9945 16.3141 97.5785 15.172 97.5785 13.7054C97.5785 12.2671 97.9874 11.1461 98.8053 10.3423C99.6373 9.52448 100.653 9.11555 101.851 9.11555C103.12 9.11555 104.121 9.60204 104.855 10.575ZM102.02 10.4693C101.217 10.4693 100.533 10.7583 99.9686 11.3365C99.4187 11.9005 99.1437 12.6902 99.1437 13.7054C99.1437 14.6784 99.3975 15.4751 99.9052 16.0956C100.427 16.7019 101.132 17.0051 102.02 17.0051C102.909 17.0051 103.614 16.6878 104.136 16.0533C104.671 15.4187 104.939 14.6432 104.939 13.7266C104.939 12.6831 104.643 11.8794 104.051 11.3153C103.459 10.7513 102.782 10.4693 102.02 10.4693ZM109.262 18.105V9.32707H110.785V12.9228H114.931V9.32707H116.454V18.105H114.931V14.3188H110.785V18.105H109.262ZM119.956 9.32707H126.132V16.709H127.444V20.4317H126.048V18.105H119.364V20.4317H117.968V16.709C118.701 16.6949 119.244 16.3141 119.596 15.5668C119.836 15.0733 119.956 14.2977 119.956 13.2401V9.32707ZM124.609 16.709V10.7231H121.479V14.0227C121.479 15.1931 121.126 16.0885 120.421 16.709H124.609ZM129.05 9.32707H130.573V15.1226L136.58 8.65022V18.105H135.057V12.246L129.05 18.7184V9.32707ZM140.095 9.32707H146.272V16.709H147.583V20.4317H146.187V18.105H139.503V20.4317H138.107V16.709C138.84 16.6949 139.383 16.3141 139.736 15.5668C139.976 15.0733 140.095 14.2977 140.095 13.2401V9.32707ZM144.749 16.709V10.7231H141.618V14.0227C141.618 15.1931 141.266 16.0885 140.561 16.709H144.749ZM155.916 10.575V9.32707H157.439V18.105H155.916V16.8782C155.154 17.8653 154.153 18.3588 152.912 18.3588C151.728 18.3588 150.72 17.9499 149.888 17.132C149.056 16.3141 148.64 15.172 148.64 13.7054C148.64 12.2671 149.049 11.1461 149.867 10.3423C150.699 9.52448 151.714 9.11555 152.912 9.11555C154.182 9.11555 155.183 9.60204 155.916 10.575ZM153.082 10.4693C152.278 10.4693 151.594 10.7583 151.03 11.3365C150.48 11.9005 150.205 12.6902 150.205 13.7054C150.205 14.6784 150.459 15.4751 150.966 16.0956C151.488 16.7019 152.193 17.0051 153.082 17.0051C153.97 17.0051 154.675 16.6878 155.197 16.0533C155.733 15.4187 156.001 14.6432 156.001 13.7266C156.001 12.6831 155.704 11.8794 155.112 11.3153C154.52 10.7513 153.843 10.4693 153.082 10.4693ZM166.076 10.7231H163.327V18.105H161.804V10.7231H159.054V9.32707H166.076V10.7231ZM167.677 18.105V9.32707H169.2V12.6902H170.765C171.978 12.6902 172.866 12.9792 173.43 13.5574C173.881 14.0086 174.107 14.622 174.107 15.3976C174.107 16.2154 173.846 16.8711 173.324 17.3647C172.802 17.8582 171.942 18.105 170.744 18.105H167.677ZM169.2 16.7513H170.617C171.251 16.7513 171.703 16.6737 171.97 16.5186C172.351 16.2648 172.542 15.8911 172.542 15.3976C172.542 14.8899 172.358 14.5233 171.992 14.2977C171.738 14.1285 171.287 14.0439 170.638 14.0439H169.2V16.7513ZM175.164 18.105V9.32707H176.687V18.105H175.164Z" fill="#111827"/>
<circle cx="69.9438" cy="10.7663" r="10.7527" transform="rotate(-91.4047 69.9438 10.7663)" fill="#F1DF6F"/>
<path d="M83.6007 11.584L80.3375 11.664C79.2415 8.74582 77.2884 3.24931 78.2249 3.84097C79.1613 4.43263 82.1974 9.18552 83.6007 11.584Z" fill="#F1DF6F"/>
<circle cx="66.9433" cy="7.46425" r="1.54677" fill="#111827"/>
</g>
<defs>
<clipPath id="clip0_4840_5575">
<rect width="178" height="22" fill="white"/>
</clipPath>
</defs>
</svg>
